<?xml version="1.0" encoding="utf-8"?>


<!-- The icon can be used freely in both personal and commercial projects with no attribution required, but always appreciated. 
You may NOT sub-license, resell, rent, redistribute or otherwise transfer the icon without express written permission from iconmonstr.com -->


<!DOCTYPE svg PUBLIC "-//W3C//DTD SVG 1.1//EN" "http://www.w3.org/Graphics/SVG/1.1/DTD/svg11.dtd">

<svg version="1.1" xmlns="http://www.w3.org/2000/svg" xmlns:xlink="http://www.w3.org/1999/xlink" x="0px" y="0px"

	 width="512px" height="512px" viewBox="0 0 512 512" enable-background="new 0 0 512 512" xml:space="preserve">

<path id="tumblr-circle-icon" stroke="none" fill="#35465c" d="M256.417,50c-113.771,0-206,92.229-206,206s92.229,206,206,206s206-92.229,206-206

	S370.188,50,256.417,50z M336.213,367.883c-10.535,4.959-20.074,8.428-28.607,10.424c-8.537,1.988-17.771,2.984-27.694,2.984

	c-11.264,0-21.222-1.424-29.877-4.263c-8.663-2.846-16.05-6.897-22.157-12.163c-6.114-5.266-10.355-10.865-12.713-16.795

	c-2.364-5.927-3.54-14.518-3.54-25.777v-86.415h-27.003v-35.131c9.653-3.142,17.916-7.649,24.798-13.514

	c6.885-5.868,12.405-12.908,16.566-21.137c4.164-8.224,7.031-18.681,8.603-31.388h34.939v62.46h58.554v38.709h-58.554v63.245

	c0,14.294,0.753,23.473,2.269,27.531c1.516,4.06,4.334,7.303,8.451,9.719c5.449,3.277,11.69,4.91,18.715,4.91

	c12.478,0,24.896-4.061,37.251-12.178V367.883z"/>

</svg>

